<svg width="68" height="68" viewBox="0 0 68 68" fill="none" xmlns="http://www.w3.org/2000/svg">
<mask id="mask0_228_54" style="mask-type:alpha" maskUnits="userSpaceOnUse" x="0" y="0" width="68" height="68">
<path d="M34 2V11.1429M66 34H56.8571M2 34H11.1429M34 56.8571V66M50.4288 50.3315C41.6762 59.0841 27.2689 58.8676 18.2493 49.848C9.22963 40.8283 9.01314 26.4211 17.7657 17.6685C26.5183 8.91587 40.9256 9.13236 49.9453 18.152C58.9649 27.1717 59.1814 41.5789 50.4288 50.3315Z" stroke="white" stroke-width="4" stroke-linecap="round"/>
</mask>
<g mask="url(#mask0_228_54)">
<path d="M34 2V11.1429M66 34H56.8571M2 34H11.1429M34 56.8571V66M50.4288 50.3315C41.6762 59.0841 27.2689 58.8676 18.2493 49.848C9.22963 40.8283 9.01314 26.4211 17.7657 17.6685C26.5183 8.91587 40.9256 9.13236 49.9453 18.152C58.9649 27.1717 59.1814 41.5789 50.4288 50.3315Z" stroke="white" stroke-width="4" stroke-linecap="round"/>
</g>
<path d="M38.0792 38.3472L29.5939 29.8619L21.2426 46.6985L38.0792 38.3472Z" fill="#FAFAFA"/>
<path d="M38.0792 38.3472L46.6985 21.2426L29.5939 29.8619M38.0792 38.3472L29.5939 29.8619M38.0792 38.3472L21.2426 46.6985L29.5939 29.8619" stroke="#FAFAFA" stroke-width="3"/>
</svg>
