<svg width="69" height="54" viewBox="0 0 69 54" fill="none" xmlns="http://www.w3.org/2000/svg">
<path d="M0 1.82992C0 0.819276 0.81929 -1.3701e-05 1.82993 -1.3701e-05H67.1701C68.1807 -1.3701e-05 69 0.819276 69 1.82992V1.82992C69 2.41779 68.7176 2.96987 68.2409 3.31386L35.6703 26.8163C34.9716 27.3205 34.0284 27.3205 33.3297 26.8163L0.759145 3.31386C0.282428 2.96987 0 2.41779 0 1.82992V1.82992Z" fill="#D23278"/>
<path d="M69 52C69 53.1046 68.1046 54 67 54H2C0.89543 54 0 53.1046 0 52V11.8081C0 10.1769 1.84756 9.23178 3.1703 10.1863L33.3297 31.9489C34.0284 32.4531 34.9716 32.4531 35.6703 31.9489L65.8297 10.1862C67.1524 9.23178 69 10.1769 69 11.8081V52Z" fill="#D23278"/>
</svg>
