<svg width="64" height="69" viewBox="0 0 64 69" fill="none" xmlns="http://www.w3.org/2000/svg">
<path d="M16 19.4062C8.00001 19.4062 1.33514e-05 17.25 1.33514e-05 9.70312C1.33514e-05 2.15624 8.00001 0 16 0L32 4.20911e-06L48 0C56 0 64 2.15625 64 9.70312C64 17.25 56 19.4062 48 19.4062L32 19.4062H16Z" fill="#D23278"/>
<path d="M16 44.2031C7.99999 44.2031 0 42.0469 0 34.5C0 26.9531 7.99999 24.7969 16 24.7969L27.5 24.7969C28.6045 24.7969 29.5 25.6923 29.5 26.7969V42.2031C29.5 43.3077 28.6045 44.2031 27.5 44.2031H16Z" fill="#D23278"/>
<path d="M48 44.2031C56 44.2031 63.9999 42.0469 63.9999 34.5C63.9999 26.9531 56 24.7969 48 24.7969L36.5 24.7969C35.3954 24.7969 34.5 25.6923 34.5 26.7969V42.2031C34.5 43.3077 35.3954 44.2031 36.5 44.2031L48 44.2031Z" fill="#D23278"/>
<path d="M16.014 69C8.49999 69 0.0139746 66.8438 0.0139746 59.2969C0.0139746 51.75 8.01398 49.5938 16.014 49.5938H27.8423C28.81 49.5938 29.6257 50.2876 29.7178 51.2508C29.8509 52.6423 30 54.9344 30 58.2188C30 66.7421 23.5279 69 16.014 69Z" fill="#D23278"/>
</svg>
