<svg width="64" height="64" viewBox="0 0 64 64" fill="none" xmlns="http://www.w3.org/2000/svg">
<path d="M0 25.1924C0 21.8829 2.68291 19.2 5.99243 19.2V19.2C9.30196 19.2 11.9849 21.8829 11.9849 25.1924V58.0076C11.9849 61.3171 9.30196 64 5.99243 64V64C2.68291 64 0 61.3171 0 58.0076V25.1924Z" fill="#D23278"/>
<path d="M0 5.33333C0 2.38782 2.38781 0 5.33333 0H6.65153C9.59705 0 11.9849 2.38782 11.9849 5.33333V5.33333C11.9849 8.27885 9.59705 10.6667 6.65154 10.6667H5.33334C2.38782 10.6667 0 8.27885 0 5.33333V5.33333Z" fill="#D23278"/>
<path d="M16.4575 25.1924C16.4575 21.8829 19.1404 19.2 22.4499 19.2H24.0018C26.4542 19.2 28.4424 21.1881 28.4424 23.6406V23.6406V33.2406V58.0076C28.4424 61.3171 25.7595 64 22.4499 64V64C19.1404 64 16.4575 61.3171 16.4575 58.0076V25.1924Z" fill="#D23278"/>
<path d="M37.8549 19.2C35.3594 19.2 32.938 20.0485 30.9884 21.6063L28.4424 23.6406V33.2406L33.527 30.4488C35.1494 29.5579 36.9704 29.0909 38.8213 29.0909H44.2114C45.3885 29.0909 46.5502 29.3577 47.6094 29.8712V29.8712C50.2947 31.1732 52 33.8951 52 36.8795V58C52 61.3137 54.6863 64 58 64V64C61.3137 64 64 61.3137 64 58V35.1279C64 33.0832 63.4301 31.0789 62.3542 29.3401L60.1648 25.8017C58.7688 23.5456 56.6045 21.87 54.0706 21.0837L49.5925 19.6942C48.5369 19.3666 47.4379 19.2 46.3326 19.2H37.8549Z" fill="#D23278"/>
</svg>
