<svg width="63" height="78" viewBox="0 0 63 78" fill="none" xmlns="http://www.w3.org/2000/svg">
<path d="M53.4063 39.6338C56.9085 32.484 60.1596 12.682 56.5625 8.78487C52.9654 4.8877 46.0916 3.45714 41.9434 5.05597C38.2344 6.4855 36.294 16.4892 39.4034 21.2464C39.4132 21.2615 39.4306 21.2698 39.4443 21.2814C41.3723 22.9141 44.7176 22.9825 46.7453 22.8447C47.734 22.7774 48.6774 23.3542 48.838 24.3322C49.2148 26.6267 49.4434 31.0036 47.1288 35.7644C43.7418 42.7313 40.1168 48.2214 34.9367 53.9775C31.3541 57.9587 27.1589 59.3739 24.9122 59.8682C23.9813 60.073 23.1189 59.4642 22.7956 58.5676C22.1018 56.6441 20.6923 53.4768 18.6001 52.2481C15.5051 50.4303 4.40003 56.957 4.56358 60.6757C4.87331 67.7179 11.7332 71.8561 13.7956 73.0087C15.858 74.1613 34.6398 65.1764 40.8723 58.3548C47.1048 51.5331 49.9041 46.7836 53.4063 39.6338Z" fill="#D23278" stroke="#D23278" stroke-width="8"/>
</svg>
