<svg width="117" height="132" viewBox="0 0 117 132" fill="none" xmlns="http://www.w3.org/2000/svg">
<path d="M53.92 17.075C50.7755 14.5174 50.7755 9.71634 53.92 7.15876C56.269 5.24813 59.6365 5.24813 61.9855 7.15875C65.13 9.71634 65.13 14.5174 61.9855 17.075C59.6365 18.9856 56.269 18.9856 53.92 17.075Z" fill="#D23278"/>
<path d="M40.0266 29.7698C42.1321 31.4056 44.7224 32.2935 47.3886 32.2935H69.5473C72.2135 32.2935 74.8038 31.4056 76.9093 29.7699L108.411 5.29698C109.462 4.48038 110.951 4.55016 111.921 5.46148C113.114 6.58213 113.046 8.4974 111.776 9.53021L78.0889 36.9301C75.2873 39.2089 73.6609 42.6282 73.6609 46.2396V67.0083C73.6609 68.9576 74.1357 70.8776 75.0444 72.6022L100.516 120.944C102.12 123.987 99.913 127.644 96.4732 127.644C94.8854 127.644 93.4115 126.82 92.58 125.467L66.1844 82.5289C64.5363 79.848 61.6149 78.2146 58.4679 78.2146C55.321 78.2146 52.3995 79.848 50.7515 82.5289L24.3559 125.467C23.5244 126.82 22.0505 127.644 20.4627 127.644C17.0229 127.644 14.8162 123.987 16.4197 120.944L41.8914 72.6022C42.8001 70.8776 43.275 68.9576 43.275 67.0083V46.2396C43.275 42.6282 41.6486 39.2089 38.847 36.9301L5.15978 9.53021C3.88996 8.49739 3.82164 6.58212 5.01462 5.46144C5.98479 4.55007 7.47392 4.48028 8.52508 5.29691L40.0266 29.7698Z" fill="#D23278"/>
<path d="M53.92 17.075C50.7755 14.5174 50.7755 9.71634 53.92 7.15876C56.269 5.24813 59.6365 5.24813 61.9855 7.15875C65.13 9.71634 65.13 14.5174 61.9855 17.075C59.6365 18.9856 56.269 18.9856 53.92 17.075Z" stroke="#D23278" stroke-width="8"/>
<path d="M40.0266 29.7698C42.1321 31.4056 44.7224 32.2935 47.3886 32.2935H69.5473C72.2135 32.2935 74.8038 31.4056 76.9093 29.7699L108.411 5.29698C109.462 4.48038 110.951 4.55016 111.921 5.46148C113.114 6.58213 113.046 8.4974 111.776 9.53021L78.0889 36.9301C75.2873 39.2089 73.6609 42.6282 73.6609 46.2396V67.0083C73.6609 68.9576 74.1357 70.8776 75.0444 72.6022L100.516 120.944C102.12 123.987 99.913 127.644 96.4732 127.644C94.8854 127.644 93.4115 126.82 92.58 125.467L66.1844 82.5289C64.5363 79.848 61.6149 78.2146 58.4679 78.2146C55.321 78.2146 52.3995 79.848 50.7515 82.5289L24.3559 125.467C23.5244 126.82 22.0505 127.644 20.4627 127.644C17.0229 127.644 14.8162 123.987 16.4197 120.944L41.8914 72.6022C42.8001 70.8776 43.275 68.9576 43.275 67.0083V46.2396C43.275 42.6282 41.6486 39.2089 38.847 36.9301L5.15978 9.53021C3.88996 8.49739 3.82164 6.58212 5.01462 5.46144C5.98479 4.55007 7.47392 4.48028 8.52508 5.29691L40.0266 29.7698Z" stroke="#D23278" stroke-width="8"/>
</svg>
