<svg width="160" height="143" viewBox="0 0 160 143" fill="none" xmlns="http://www.w3.org/2000/svg">
<path d="M61.0779 6.64576C61.6168 5.25314 63.1083 4.43915 64.5871 4.73628L84.2272 8.68251C84.2272 8.68251 92.2011 10.7788 93.9725 13.7514C96.6985 18.3258 94.7049 24.1463 89.0545 27.0486C81.3859 30.9875 81.7131 40.337 81.7131 40.337C81.7131 40.337 82.448 49.2623 89.1347 52.5422C96.4962 56.1529 102.546 52.8715 103.796 52.0999C103.959 51.9995 104.116 51.9091 104.286 51.82C105.658 51.0984 112.154 47.2297 112.182 38.6613C112.201 32.9739 114.589 26.9788 122.265 28.4678C125.285 29.0536 129.181 32.0653 129.181 32.0653L144.352 46.2576C145.442 47.2781 145.582 48.9421 144.678 50.1501L132.326 66.663C132.326 66.663 120.995 80.6157 129.927 84.1911C136.887 86.9768 141.994 81.1068 150.623 89.9494C154.758 94.1862 157.368 99.7165 152.355 108.791C149.634 113.716 141.843 119.039 136.704 117.341C121.304 112.251 122.952 102.677 115.638 103.462C110.575 104.006 108.394 111.96 108.033 113.431C107.995 113.586 107.948 113.739 107.89 113.889L98.7512 137.053C98.237 138.356 96.8737 139.144 95.4771 138.911C90.1095 138.015 76.8731 135.454 67.7919 130.731C63.2644 128.376 61.0301 120.993 65.2607 117.731C73.016 111.752 78.7819 107.712 77.8905 99.2661C77.2887 93.5647 75.1097 89.5584 69.9754 87.2215C64.5504 84.7522 59.6288 86.0806 54.4962 89.6011C48.0126 94.0481 47.3296 99.6426 46.7132 108.084C46.3979 112.401 42.145 114.887 38.2853 114.548C34.4255 114.21 33.547 112.41 30.7405 110.624L12.3992 95.5054C11.1538 94.4788 10.9811 92.6572 12.0095 91.3933L27.8148 71.9677C27.8148 71.9677 37.1195 56.5903 27.5238 56.3784C17.9281 56.1665 10.1064 52.7432 7.81427 50.2992C5.52216 47.8552 2.2832 41.9977 6.80327 33.0834C11.3233 24.1692 19.2659 23.7108 19.2659 23.7108C33.0423 22.9487 35.3027 34.9727 40.3762 36.7774C45.4497 38.5822 47.7088 39.3395 53.4201 25.6205C57.2558 16.4072 59.8123 9.91581 61.0779 6.64576Z" fill="#FAFAFA" stroke="#D23278" stroke-width="8"/>
</svg>
