<svg width="36" height="27" viewBox="0 0 36 27" fill="none" xmlns="http://www.w3.org/2000/svg">
<path d="M0.150513 0.971989C0.150513 0.435176 0.585685 3.75928e-06 1.1225 3.75928e-06H34.1315C34.6683 3.75928e-06 35.1035 0.435176 35.1035 0.971989V0.971989C35.1035 1.27778 34.9596 1.56574 34.715 1.74932L18.2273 14.1264C17.8716 14.3934 17.3823 14.3934 17.0266 14.1264L0.538964 1.74932C0.294414 1.56574 0.150513 1.27778 0.150513 0.971989V0.971989Z" fill="white"/>
<path d="M35.1035 26C35.1035 26.5523 34.6558 27 34.1035 27H1.15051C0.598228 27 0.150513 26.5523 0.150513 26V4.70594C0.150513 3.88169 1.09168 3.41136 1.75086 3.9062L17.0266 15.3735C17.3823 15.6406 17.8716 15.6406 18.2273 15.3735L33.5031 3.9062C34.1623 3.41136 35.1035 3.88169 35.1035 4.70594V26Z" fill="white"/>
</svg>
