<svg width="31" height="36" viewBox="0 0 31 36" fill="none" xmlns="http://www.w3.org/2000/svg">
<path d="M15.325 30.2727C15.325 33.4358 12.0556 36 8.02263 36C3.98967 36 0.720313 33.4358 0.720313 30.2727C0.720313 27.1097 3.98967 24.5455 8.02263 24.5455C10.0659 24.5455 15.325 24.5455 15.325 24.5455C15.325 24.5455 15.325 28.7122 15.325 30.2727Z" fill="white"/>
<path d="M15.251 18.0001C15.251 19.5606 15.251 23.7274 15.251 23.7274C15.251 23.7274 9.99196 23.7274 7.94868 23.7274C3.91572 23.7274 0.646362 21.1632 0.646362 18.0001C0.646362 14.837 3.91572 12.2729 7.94868 12.2729C9.99196 12.2729 15.251 12.2729 15.251 12.2729C15.251 12.2729 15.251 16.4396 15.251 18.0001Z" fill="white"/>
<path d="M15.251 5.72746C15.251 7.28798 15.251 11.4547 15.251 11.4547C15.251 11.4547 9.99196 11.4547 7.94868 11.4547C3.91572 11.4547 0.646362 8.89055 0.646362 5.72746C0.646362 2.56438 3.91572 0.000199751 7.94868 0.000199751C9.99196 0.000199751 15.251 0.000202336 15.251 0.000202336C15.251 0.000202336 15.251 4.16694 15.251 5.72746Z" fill="white"/>
<path d="M15.251 18.0001C15.251 19.5606 15.251 23.7274 15.251 23.7274C15.251 23.7274 9.99196 23.7274 7.94868 23.7274C3.91572 23.7274 0.646362 21.1632 0.646362 18.0001C0.646362 14.837 3.91572 12.2729 7.94868 12.2729C9.99196 12.2729 15.251 12.2729 15.251 12.2729C15.251 12.2729 15.251 16.4396 15.251 18.0001Z" fill="white"/>
<path d="M15.251 5.72746C15.251 7.28798 15.251 11.4547 15.251 11.4547C15.251 11.4547 9.99196 11.4547 7.94868 11.4547C3.91572 11.4547 0.646362 8.89055 0.646362 5.72746C0.646362 2.56438 3.91572 0.000199751 7.94868 0.000199751C9.99196 0.000199751 15.251 0.000202336 15.251 0.000202336C15.251 0.000202336 15.251 4.16694 15.251 5.72746Z" fill="white"/>
<path d="M16.2941 18.0001C16.2941 19.5606 16.2941 23.7273 16.2941 23.7273C16.2941 23.7273 21.5532 23.7273 23.5965 23.7273C27.6294 23.7273 30.8988 21.1631 30.8988 18.0001C30.8988 14.837 27.6294 12.2728 23.5965 12.2728C21.5532 12.2728 16.2941 12.2728 16.2941 12.2728C16.2941 12.2728 16.2941 16.4395 16.2941 18.0001Z" fill="white"/>
<path d="M16.2942 5.72727C16.2942 7.28779 16.2942 11.4545 16.2942 11.4545C16.2942 11.4545 21.5532 11.4545 23.5965 11.4545C27.6295 11.4545 30.8988 8.89035 30.8988 5.72727C30.8988 2.56418 27.6295 0 23.5965 0C21.5532 0 16.2942 2.58467e-06 16.2942 2.58467e-06C16.2942 2.58467e-06 16.2942 4.16674 16.2942 5.72727Z" fill="white"/>
</svg>
