<svg width="143" height="153" viewBox="0 0 143 153" fill="none" xmlns="http://www.w3.org/2000/svg">
<path d="M94.9414 50.8457C90.0987 46.4708 83.8047 44.0489 77.2785 44.0489H65.1378C58.6115 44.0489 52.3175 46.4708 47.4748 50.8457C41.9448 55.8414 38.7889 62.9453 38.7889 70.3977V77.0571C38.7889 84.011 41.7337 90.6396 46.8937 95.3011C52.0538 99.9627 54.9985 106.591 54.9985 113.545V117.266H87.4177V113.545C87.4177 106.591 90.3624 99.9627 95.5225 95.3011C100.683 90.6396 103.627 84.011 103.627 77.0571V70.3977C103.627 62.9453 100.471 55.8414 94.9414 50.8457Z" fill="#FAFAFA" fill-opacity="0.7"/>
<path d="M87.4177 132.956H54.9985C54.9985 141.621 62.0229 148.645 70.688 148.645H71.7282C80.3933 148.645 87.4177 141.621 87.4177 132.956Z" fill="#FAFAFA" fill-opacity="0.7"/>
<path d="M87.4177 117.266V113.545C87.4177 106.591 90.3624 99.9627 95.5225 95.3011V95.3011C100.683 90.6396 103.627 84.011 103.627 77.0571V70.3976C103.627 62.9453 100.471 55.8414 94.9414 50.8457V50.8457C90.0987 46.4708 83.8047 44.0489 77.2785 44.0489H65.1378C58.6115 44.0489 52.3175 46.4708 47.4748 50.8457V50.8457C41.9448 55.8414 38.7889 62.9453 38.7889 70.3977V77.0571C38.7889 84.011 41.7337 90.6396 46.8937 95.3011V95.3011C52.0538 99.9627 54.9985 106.591 54.9985 113.545V117.266M87.4177 117.266V132.956M87.4177 117.266H54.9985M54.9985 117.266V132.956M54.9985 132.956H87.4177M54.9985 132.956V132.956C54.9985 141.621 62.0229 148.645 70.688 148.645H71.7283C80.3933 148.645 87.4177 141.621 87.4177 132.956V132.956M71.2081 19.9419V4.25244M103.627 25.8062L115.089 14.7121M39.4445 25.8062L27.9826 14.7121M19.744 46.091L4.36365 39.865M138.106 39.865L125.24 46.091" stroke="#D23278" stroke-width="8" stroke-linecap="round" stroke-linejoin="round"/>
</svg>
