<svg width="36" height="37" viewBox="0 0 36 37" fill="none" xmlns="http://www.w3.org/2000/svg">
<path d="M0.196899 14.3876C0.196899 12.5719 1.66881 11.1 3.48451 11.1V11.1C5.30021 11.1 6.77213 12.5719 6.77213 14.3876V33.7124C6.77213 35.5281 5.30021 37 3.48451 37V37C1.66881 37 0.196899 35.5281 0.196899 33.7124V14.3876Z" fill="white"/>
<path d="M0.196899 3.08333C0.196899 1.38045 1.57736 0 3.28023 0H3.68879C5.39167 0 6.77213 1.38045 6.77213 3.08333V3.08333C6.77213 4.78621 5.39167 6.16667 3.68879 6.16667H3.28023C1.57736 6.16667 0.196899 4.78621 0.196899 3.08333V3.08333Z" fill="white"/>
<path d="M9.22593 14.3876C9.22593 12.5719 10.6978 11.1 12.5135 11.1H13.2339C14.6518 11.1 15.8012 12.2494 15.8012 13.6672V13.6672V19.2172V33.7124C15.8012 35.5281 14.3292 37 12.5135 37V37C10.6978 37 9.22593 35.5281 9.22593 33.7124V14.3876Z" fill="white"/>
<path d="M22.8361 11.1C20.2619 11.1 17.7704 12.0092 15.8012 13.6672V13.6672V19.2172L17.4436 18.267C19.0838 17.3179 20.9453 16.8182 22.8403 16.8182H24.3905C25.0762 16.8182 25.7522 16.9809 26.3628 17.2928V17.2928C27.8129 18.0337 28.7255 19.5248 28.7255 21.1532V33.7082C28.7255 35.5262 30.1993 37 32.0173 37V37C33.8353 37 35.309 35.5262 35.309 33.7082V21.2173C35.309 19.4381 34.8341 17.6911 33.9332 16.1568V16.1568C32.6987 14.0544 30.7382 12.4757 28.4209 11.718L28.1561 11.6314C27.0795 11.2793 25.9539 11.1 24.8212 11.1H22.8361Z" fill="white"/>
</svg>
