<svg width="45" height="49" viewBox="0 0 45 49" fill="none" xmlns="http://www.w3.org/2000/svg">
<path fill-rule="evenodd" clip-rule="evenodd" d="M19.6154 25.6494L19.4093 26.0553C17.7831 29.2571 12.0868 29.2998 10.3846 26.1229C7.42179 20.2486 7.42179 13.6955 10.3846 7.82124C12.1284 4.70964 17.7194 4.76159 19.3708 7.90474L19.7741 8.67248C20.3767 9.8194 21.7897 10.5665 23.3564 10.5665C25.6694 10.5665 27.4372 8.96561 26.7112 7.22394C25.6674 4.71994 23.5942 1.55239 19.6154 0.500566C18.635 0.241385 17.5388 0.0923167 16.3795 0.0273714C6.35997 -0.533887 -1.99445e-05 7.63348 0 15.5994C2.17329e-05 24.2724 4.61213 34.3672 15.5446 34.5864C16.5675 34.6069 17.5502 34.5393 18.4615 34.3587C18.8623 34.2792 19.2467 34.187 19.6154 34.0837V39.8492C19.6154 44.903 25.2979 49 32.3077 49C39.3175 49 45 44.903 45 39.8492V25.2078C45 20.154 39.3175 16.057 32.3077 16.057C25.2979 16.057 19.6154 20.154 19.6154 25.2078V25.6494ZM36.1154 40.5944V24.4625C36.1154 23.7612 35.8076 23.0818 35.2448 22.5408C33.7219 21.0768 30.8935 21.0768 29.3705 22.5408C28.8078 23.0818 28.5 23.7612 28.5 24.4625V40.5944C28.5 41.2958 28.8078 41.9752 29.3705 42.5162C30.8935 43.9802 33.7219 43.9802 35.2448 42.5162C35.8076 41.9752 36.1154 41.2958 36.1154 40.5944Z" fill="#D23278"/>
</svg>
