<svg width="47" height="45" viewBox="0 0 47 45" fill="none" xmlns="http://www.w3.org/2000/svg">
<path d="M23.6182 0L12.4587 3.70255L10.8645 16.9259H14.5843L16.7099 16.397L20.461 15.4636L20.9611 17.4549C20.9611 17.4549 17.992 18.2346 16.7099 19.5706C16.0229 20.2865 15.7448 20.88 15.3744 21.6706C15.2942 21.8418 15.2096 22.0223 15.1157 22.2153C14.5315 23.4147 14.3132 24.3676 14.0754 25.4053C13.9285 26.0466 13.7741 26.7203 13.5214 27.5046C13.3847 27.929 13.3114 28.3132 13.2421 28.6762C13.1082 29.3771 12.9895 29.9988 12.4586 30.6782C11.949 31.3304 11.5324 31.4329 10.8758 31.5944C10.7116 31.6348 10.5324 31.6788 10.3329 31.7361C9.1201 32.0845 8.33253 32.161 7.14457 31.7361C5.42911 31.1225 4.67722 30.3626 3.43928 29.1114C3.26788 28.9381 3.08716 28.7555 2.89327 28.5625C2.28823 27.9603 1.50142 27.5954 0.767703 28.0336C0.0339848 28.4717 -0.238317 29.4407 0.236297 30.1493C1.11455 31.4606 1.51617 31.8888 2.02306 32.4293C2.12955 32.5428 2.24069 32.6613 2.36186 32.794C2.76273 33.2329 2.99307 33.5322 3.16353 33.7538C3.58668 34.3037 3.64089 34.3741 5.01889 34.9097C6.96165 35.6648 9.35123 35.8487 11.3958 35.4387C13.2154 35.0737 14.5843 33.8518 15.1157 33.3229C15.6471 32.794 16.6882 30.6476 17.2413 28.5625C17.4597 27.739 17.7727 26.4468 17.7727 26.4468L19.8983 33.3229L19.3669 37.0255V40.728C19.3669 40.728 20.1409 42.4824 21.4925 43.3727C24.0885 45.0826 27.0595 45.4618 29.995 44.4306C31.5727 43.8763 32.3203 42.6836 33.1834 41.2569C33.8347 40.1806 33.7149 38.0833 33.7149 38.0833L33.1834 34.3808L32.1206 30.6782L31.5892 25.3889L31.0578 21.6863C31.0578 21.6863 35.3991 22.0091 37.9661 21.1574L38.1692 21.0901C40.5861 20.2892 41.5585 19.967 43.2802 17.9838C43.5381 17.6867 43.7672 17.4325 43.9728 17.2044C44.9761 16.0913 45.4201 15.5986 45.9372 13.7523L46.0249 13.4396C46.5487 11.574 47 9.96641 47 8.46297V3.70256C47 2.11575 46.4686 1.05787 44.8744 0.528935C43.2802 0 42.7488 1.5868 42.7488 1.5868V5.28936C42.7488 6.2266 42.5741 7.13492 42.3194 8.45902C42.2867 8.62944 42.2526 8.80675 42.2173 8.9919C41.8371 10.9908 41.4128 12.2 40.0917 13.7523C38.9378 15.1082 37.9968 15.661 36.3719 16.397C34.4456 17.2695 33.1673 17.6251 31.0578 17.4549C30.3274 17.3959 29.7856 17.1581 29.249 16.9226C28.6793 16.6726 28.1155 16.4252 27.338 16.397C26.0765 16.3513 24.1496 16.9259 24.1496 16.9259L23.6182 14.2812L26.8066 13.2234L29.4637 12.1655L32.6521 10.0498L23.6182 0Z" fill="#FAFAFA"/>
</svg>
