<svg width="43" height="43" viewBox="0 0 43 43" fill="none" xmlns="http://www.w3.org/2000/svg">
<path d="M19.3571 29.0557L16.1368 31.2821C14.7012 32.2747 12.5984 31.6642 11.7092 29.9965C11.4732 29.5539 11.1373 29.1661 10.7308 28.867L10.5788 28.7552C9.06135 27.6387 7.05527 27.7143 5.83571 28.9338L1.6959 33.0736C0.378037 34.3915 0.2964 36.5593 1.50288 38.199C1.77522 38.5692 2.10313 38.8971 2.47329 39.1695L3.9392 40.248C4.84914 40.9175 5.8565 41.4303 6.91444 41.7626C9.24877 42.4958 11.6957 42.3094 13.7325 41.2432L16.7 39.6898C18.1022 38.9558 19.3771 38.0199 20.4879 36.9091L36.9091 20.4879C38.0199 19.377 38.9558 18.1022 39.6898 16.7L41.2432 13.7325C42.3094 11.6957 42.4958 9.24875 41.7626 6.91442C41.4303 5.85648 40.9175 4.84911 40.248 3.93918L39.1695 2.47327C38.8971 2.10311 38.5692 1.7752 38.1991 1.50285C36.5593 0.296379 34.3915 0.378016 33.0737 1.69588L28.9338 5.83569C27.7143 7.05525 27.6387 9.06133 28.7552 10.5788L28.867 10.7308C29.1661 11.1373 29.5539 11.4732 29.9966 11.7092C31.6642 12.5984 32.2747 14.7012 31.2821 16.1368L29.0557 19.3571C28.8619 19.6374 28.6438 19.899 28.4035 20.1392L20.1393 28.4035C19.899 28.6438 19.6374 28.8619 19.3571 29.0557Z" fill="#FAFAFA" stroke="#FAFAFA"/>
</svg>
