<svg width="136" height="136" viewBox="0 0 136 136" fill="none" xmlns="http://www.w3.org/2000/svg">
<path d="M99.0016 63.0645C99.0016 56.1196 96.3735 49.432 91.6452 44.3452C86.4433 38.7489 79.1473 35.5695 71.5066 35.5695H67.9744H64.4422C56.8016 35.5695 49.5055 38.7489 44.3036 44.3452C39.5753 49.432 36.9472 56.1196 36.9472 63.0645V68.1074C36.9472 74.5176 39.7878 80.5983 44.704 84.712C49.6202 88.8256 52.4608 94.9063 52.4608 101.317V104.184H83.488V101.317C83.488 94.9063 86.3286 88.8256 91.2448 84.712C96.161 80.5983 99.0016 74.5176 99.0016 68.1074V63.0645Z" fill="white"/>
<path d="M52.4608 104.184V118.092C52.4608 125.773 58.6877 132 66.369 132H69.5798C77.2611 132 83.488 125.773 83.488 118.092V104.184H52.4608Z" fill="white"/>
<path d="M83.488 104.184V101.317C83.488 94.9063 86.3286 88.8256 91.2448 84.712C96.161 80.5983 99.0016 74.5176 99.0016 68.1074V63.0645C99.0016 56.1196 96.3735 49.432 91.6452 44.3452C86.4433 38.7489 79.1473 35.5695 71.5066 35.5695H67.9744H64.4422C56.8016 35.5695 49.5055 38.7489 44.3036 44.3452C39.5753 49.432 36.9472 56.1196 36.9472 63.0645V68.1074C36.9472 74.5176 39.7878 80.5983 44.704 84.712C49.6202 88.8256 52.4608 94.9063 52.4608 101.317V104.184M83.488 104.184V118.092C83.488 125.773 77.2611 132 69.5798 132H66.369C58.6877 132 52.4608 125.773 52.4608 118.092V104.184M83.488 104.184H52.4608M67.9744 4V19.7848M4 35.5695L20.4736 43.9145M132 35.5695L115.501 43.9145" stroke="#D23278" stroke-width="8" stroke-linecap="round" stroke-linejoin="round"/>
</svg>
