<svg width="128" height="132" viewBox="0 0 128 132" fill="none" xmlns="http://www.w3.org/2000/svg">
<path d="M79.488 114.092H48.4608C48.4608 121.773 54.6877 128 62.369 128H65.5798C73.2611 128 79.488 121.773 79.488 114.092Z" fill="#D23278"/>
<path d="M95.0016 59.0645C95.0016 52.1197 92.3735 45.432 87.6452 40.3453C82.4433 34.749 75.1473 31.5696 67.5067 31.5696H60.4422C52.8016 31.5696 45.5055 34.7489 40.3036 40.3453C35.5753 45.432 32.9472 52.1196 32.9472 59.0645V64.1074C32.9472 70.5177 35.7878 76.5984 40.704 80.712C45.6202 84.8257 48.4608 90.9064 48.4608 97.3166V100.184H79.488V97.3166C79.488 90.9064 82.3286 84.8257 87.2448 80.712C92.161 76.5984 95.0016 70.5177 95.0016 64.1074V59.0645Z" fill="#D23278"/>
<path d="M48.4608 100.184V114.092H79.488V100.184H48.4608Z" fill="#D23278"/>
<path d="M79.488 100.184V97.3166C79.488 90.9064 82.3286 84.8257 87.2448 80.712C92.161 76.5984 95.0016 70.5177 95.0016 64.1074V59.0645C95.0016 52.1197 92.3735 45.432 87.6452 40.3453C82.4433 34.749 75.1473 31.5696 67.5067 31.5696H60.4422C52.8016 31.5696 45.5055 34.7489 40.3036 40.3453C35.5753 45.432 32.9472 52.1196 32.9472 59.0645V64.1074C32.9472 70.5177 35.7878 76.5984 40.704 80.712C45.6202 84.8257 48.4608 90.9064 48.4608 97.3166V100.184M79.488 100.184V114.092M79.488 100.184H48.4608M48.4608 100.184V114.092M48.4608 114.092H79.488M48.4608 114.092C48.4608 121.773 54.6877 128 62.369 128H65.5798C73.2611 128 79.488 121.773 79.488 114.092" stroke="#D23278" stroke-width="8" stroke-linecap="round" stroke-linejoin="round"/>
<path d="M76.0039 101.487V111.743C76.0039 117.407 71.4123 122 65.748 122H62.2031C56.5387 122 51.9463 117.408 51.9463 111.743V101.487H76.0039ZM60.3281 36.0898H67.623C74.0623 36.09 80.2175 38.7421 84.6396 43.4229C88.7455 47.7688 91.0332 53.5213 91.0332 59.5V64.0088C91.0332 69.275 88.677 74.2652 84.6113 77.6123C79.2542 82.0226 76.1144 88.5612 76.0088 95.4873H51.9414C51.8358 88.5612 48.696 82.0226 43.3389 77.6123C39.2732 74.2652 36.918 69.275 36.918 64.0088V59.5C36.918 53.5213 39.2048 47.7688 43.3105 43.4229C47.7328 38.742 53.8887 36.0898 60.3281 36.0898Z" stroke="white" stroke-width="6" stroke-linecap="round" stroke-linejoin="round"/>
</svg>
